<svg width="12" height="12" viewBox="0 0 12 12" fill="none" xmlns="http://www.w3.org/2000/svg">
<g clip-path="url(#clip0_0_314)">
<path d="M4 8.49976L6 10.4998L8 8.49976" stroke="#2B2B2B" stroke-linecap="round" stroke-linejoin="round"/>
<path d="M6 6V10.5" stroke="#2B2B2B" stroke-linecap="round" stroke-linejoin="round"/>
<path d="M10.44 9.045C10.8747 8.73933 11.2007 8.30308 11.3706 7.79958C11.5406 7.29608 11.5457 6.75151 11.3852 6.24492C11.2247 5.73832 10.9069 5.29605 10.478 4.98229C10.0491 4.66852 9.53141 4.49959 9 4.5H8.37C8.21962 3.91394 7.93824 3.36963 7.54706 2.90804C7.15587 2.44646 6.66507 2.07963 6.1116 1.83518C5.55813 1.59073 4.95642 1.47502 4.35176 1.49676C3.7471 1.51851 3.15525 1.67714 2.62077 1.96072C2.08629 2.2443 1.62311 2.64543 1.26609 3.13392C0.909072 3.62241 0.667523 4.18553 0.559627 4.78088C0.451732 5.37623 0.480302 5.9883 0.643187 6.57101C0.806072 7.15373 1.09903 7.6919 1.5 8.145" stroke="#2B2B2B" stroke-linecap="round" stroke-linejoin="round"/>
</g>
<defs>
<clipPath id="clip0_0_314">
<rect width="12" height="12" fill="white"/>
</clipPath>
</defs>
</svg>
