<svg width="12" height="12" viewBox="0 0 12 12" fill="none" xmlns="http://www.w3.org/2000/svg">
<path d="M4.5 9.74904C4.32462 9.74904 4.15228 9.70615 4 9.6246L2 8.68348C1.6905 8.51756 1.5 8.21104 1.5 7.87873V5.52685C1.5 5.19501 1.6905 4.88802 2 4.72164L7 2.37444C7.15228 2.29289 7.32462 2.25 7.5 2.25C7.67538 2.25 7.84772 2.29289 8 2.37444L10 3.31557C10.1516 3.39651 10.2777 3.51357 10.3655 3.65489C10.4533 3.79621 10.4997 3.95677 10.5 4.12031V6.4722C10.5 6.80403 10.3095 7.11102 10 7.2774L5 9.6246C4.84772 9.70615 4.67538 9.74904 4.5 9.74904ZM4.5 9.74904V6.2341M4.5 6.2341L10.25 3.6563M4.5 6.2341L1.75 5.06237" stroke="#2B2B2B" stroke-linecap="round" stroke-linejoin="round"/>
</svg>
