<svg width="12" height="12" viewBox="0 0 12 12" fill="none" xmlns="http://www.w3.org/2000/svg">
<path d="M1.5 3H2.5H10.5" stroke="#2B2B2B" stroke-linecap="round" stroke-linejoin="round"/>
<path d="M4 2.99976V1.99976C4 1.73454 4.10536 1.48019 4.29289 1.29265C4.48043 1.10511 4.73478 0.999756 5 0.999756H7C7.26522 0.999756 7.51957 1.10511 7.70711 1.29265C7.89464 1.48019 8 1.73454 8 1.99976V2.99976M9.5 2.99976V9.99976C9.5 10.265 9.39464 10.5193 9.20711 10.7069C9.01957 10.8944 8.76522 10.9998 8.5 10.9998H3.5C3.23478 10.9998 2.98043 10.8944 2.79289 10.7069C2.60536 10.5193 2.5 10.265 2.5 9.99976V2.99976H9.5Z" stroke="#2B2B2B" stroke-linecap="round" stroke-linejoin="round"/>
<path d="M7 5.49976V8.49976" stroke="#2B2B2B" stroke-linecap="round" stroke-linejoin="round"/>
<path d="M5 5.49976V8.49976" stroke="#2B2B2B" stroke-linecap="round" stroke-linejoin="round"/>
</svg>
